<?xml version="1.0" encoding="UTF-8"?>
<svg version="1.1" xmlns="http://www.w3.org/2000/svg" width="4116" height="4116">
<path d="M0 0 C1358.28 0 2716.56 0 4116 0 C4116 1358.28 4116 2716.56 4116 4116 C2757.72 4116 1399.44 4116 0 4116 C0 2757.72 0 1399.44 0 0 Z " fill="#2C2C2C" transform="translate(0,0)"/>
<path d="M0 0 C0.71394928 0.00149048 1.42789856 0.00298096 2.16348267 0.0045166 C19.83732409 0.07042431 37.25633037 1.47338539 54.0625 7.3125 C54.77825195 7.55484375 55.49400391 7.7971875 56.23144531 8.046875 C77.58825209 15.32334863 97.92723855 25.43651103 115.0625 40.3125 C116.25359375 41.33923828 116.25359375 41.33923828 117.46875 42.38671875 C154.18106079 74.74234709 175.83913774 117.31603353 179.0625 166.3125 C180.67916422 198.05129671 176.12676416 233.76211369 158.265625 261.05859375 C156.86094031 263.18046458 156.86094031 263.18046458 157.27685547 265.28198242 C158.24509851 267.78443034 159.23596811 268.53647832 161.4296875 270.0546875 C162.14060547 270.55613281 162.85152344 271.05757812 163.58398438 271.57421875 C164.36064453 272.10660156 165.13730469 272.63898438 165.9375 273.1875 C167.59190445 274.35048407 169.24552561 275.51458307 170.8984375 276.6796875 C171.75405273 277.2787793 172.60966797 277.87787109 173.49121094 278.49511719 C177.56127053 281.37182851 181.560249 284.3425526 185.5625 287.3125 C191.70166222 291.85134128 197.86597577 296.3523048 204.0625 300.8125 C210.25904414 305.27270953 216.42226023 309.77509635 222.5625 314.3125 C230.18620944 319.9445066 237.84937294 325.51859553 245.54296875 331.0546875 C248.71999972 333.34103382 251.88783514 335.63952172 255.05078125 337.9453125 C255.86861084 338.54013428 256.68644043 339.13495605 257.52905273 339.74780273 C259.09663829 340.88825499 260.66264281 342.03088465 262.22680664 343.17602539 C262.93313232 343.6889917 263.63945801 344.20195801 264.3671875 344.73046875 C264.98577637 345.18188232 265.60436523 345.6332959 266.24169922 346.09838867 C268.11772971 347.34932722 270.02674639 348.34744153 272.0625 349.3125 C272.69414062 348.58546875 273.32578125 347.8584375 273.9765625 347.109375 C285.16294332 334.44707246 297.68290409 324.16007302 312.0625 315.3125 C312.68850098 314.92465332 313.31450195 314.53680664 313.95947266 314.13720703 C332.36939127 302.87594622 353.68707211 294.6382841 375.0625 291.3125 C376.65191406 291.03599609 376.65191406 291.03599609 378.2734375 290.75390625 C422.74041265 283.99529892 469.90439113 295.08569915 506.3671875 321.5078125 C512.1646131 325.8399213 517.62512319 330.54233304 523.0625 335.3125 C524.35301446 336.37639917 525.64445049 337.43918333 526.9375 338.5 C530.71647021 341.76155619 533.85721848 345.49853875 537.0625 349.3125 C538.18978516 350.59060547 538.18978516 350.59060547 539.33984375 351.89453125 C556.20193751 371.36718613 567.99836799 394.58803798 575.0625 419.3125 C575.37703125 420.40820312 575.6915625 421.50390625 576.015625 422.6328125 C577.91752998 429.77427923 579.12531201 436.98621312 580.0625 444.3125 C580.1759375 445.18519531 580.289375 446.05789063 580.40625 446.95703125 C583.08057278 472.32595431 580.84938963 498.30361627 572.0625 522.3125 C571.64484375 523.56160156 571.2271875 524.81070313 570.796875 526.09765625 C562.7619661 549.59000219 549.36704866 570.61578026 532.0625 588.3125 C531.14207797 589.29319166 530.22282009 590.27497712 529.3046875 591.2578125 C498.53485295 623.68672685 454.0566848 641.96754819 409.703125 643.4765625 C395.91226572 643.78983148 380.24506374 643.70668791 367.0625 639.3125 C366.89161865 639.96879395 366.7207373 640.62508789 366.54467773 641.30126953 C364.66770292 648.3621811 362.47924803 655.27273721 360.125 662.1875 C358.08849322 668.19107489 356.0812354 674.1949756 354.24072266 680.26196289 C352.19033539 686.94904658 350.03149529 693.59714829 347.84035683 700.23929024 C347.15168829 702.32694244 346.46461858 704.41511561 345.77787781 706.50340271 C344.31163932 710.96105915 342.84338947 715.41805174 341.375 719.875 C339.45315363 725.7092167 337.53233541 731.54377047 335.61328125 737.37890625 C335.26268332 738.44477903 335.26268332 738.44477903 334.90500259 739.5321846 C330.22343152 753.7707624 325.62441696 768.03512838 321.0625 782.3125 C321.98434082 782.60656738 322.90618164 782.90063477 323.85595703 783.20361328 C327.49661325 784.46262505 330.6618017 786.19801109 333.9375 788.1875 C334.90490112 788.77362061 334.90490112 788.77362061 335.8918457 789.37158203 C348.33249914 797.06772792 359.54227063 806.18190875 370.0625 816.3125 C370.6915625 816.89 371.320625 817.4675 371.96875 818.0625 C401.31571187 845.74831309 419.76535571 889.19323538 421.20288086 929.22143555 C421.31831753 933.70992677 421.36029328 938.19764763 421.375 942.6875 C421.37795074 943.48219696 421.38090149 944.27689392 421.38394165 945.09567261 C421.39474006 957.90565166 420.3275788 969.88178818 417.0625 982.3125 C416.835625 983.31410156 416.60875 984.31570313 416.375 985.34765625 C405.45821837 1030.58407011 375.11170066 1068.80888676 336.00097656 1093.15576172 C296.48850261 1116.73386015 247.68293167 1125.07759766 202.87890625 1113.8359375 C171.27962329 1105.29979281 144.59973159 1089.98439219 121.0625 1067.3125 C120.3096875 1066.62285156 119.556875 1065.93320313 118.78125 1065.22265625 C92.31777328 1040.24535304 73.73095757 1001.30923989 70.0625 965.3125 C70.0625 963.3325 70.0625 961.3525 70.0625 959.3125 C25.8425 959.3125 -18.3775 959.3125 -63.9375 959.3125 C-63.9375 961.9525 -63.9375 964.5925 -63.9375 967.3125 C-67.86953869 996.97524799 -80.61005325 1025.82136785 -98.9375 1049.3125 C-99.5871875 1050.16585938 -100.236875 1051.01921875 -100.90625 1051.8984375 C-115.62528241 1070.62675859 -133.96399914 1086.0378849 -154.9375 1097.3125 C-155.55431641 1097.64556152 -156.17113281 1097.97862305 -156.80664062 1098.32177734 C-197.58366014 1119.87564477 -246.13876726 1124.69111761 -290.29833984 1111.28076172 C-326.95887834 1099.43452418 -359.13490921 1076.33375169 -381.9375 1045.3125 C-382.3588623 1044.74611816 -382.78022461 1044.17973633 -383.21435547 1043.59619141 C-404.11169659 1015.15916141 -415.65304218 979.23594194 -415.27368164 944.02539062 C-415.24993052 941.68064122 -415.25317899 939.33702858 -415.25976562 936.9921875 C-415.23608047 923.25623186 -414.09558645 909.83138217 -410.3125 896.5625 C-410.05307617 895.63985352 -409.79365234 894.71720703 -409.52636719 893.76660156 C-395.59389024 845.81334073 -363.86551775 808.52181009 -320.625 784.3125 C-319.39654105 783.64453013 -318.16750537 782.97761797 -316.9375 782.3125 C-318.54983809 774.14011507 -321.08511188 766.31753352 -323.671875 758.4140625 C-324.14715511 756.95158398 -324.6220663 755.48898552 -325.09663391 754.02627563 C-326.36122621 750.13199285 -327.63087104 746.23937505 -328.90150833 742.34706116 C-330.21663007 738.31538197 -331.52689423 734.28212485 -332.83764648 730.24902344 C-335.64060784 721.62732842 -338.44988581 713.00770056 -341.26061249 704.38853455 C-343.28685076 698.17400027 -345.31072455 691.95869486 -347.33474731 685.74343872 C-348.7541591 681.38514442 -350.17455297 677.02718159 -351.59863281 672.67041016 C-355.11410374 661.90597932 -358.54464911 651.11618977 -361.9375 640.3125 C-362.60990723 640.40337891 -363.28231445 640.49425781 -363.97509766 640.58789062 C-414.32391867 647.2543446 -462.21364396 639.54336599 -503.55761719 608.18359375 C-510.6875069 602.61299544 -517.47734665 596.64547649 -523.9375 590.3125 C-524.42428223 589.83651367 -524.91106445 589.36052734 -525.41259766 588.87011719 C-551.5075442 562.95572876 -569.02869762 525.85790477 -572.9375 489.3125 C-573.11410156 488.00925781 -573.29070312 486.70601562 -573.47265625 485.36328125 C-575.82878579 463.64018311 -574.71424416 441.36890821 -568.9375 420.3125 C-568.62449951 419.12744873 -568.62449951 419.12744873 -568.30517578 417.91845703 C-563.29507882 399.48432939 -554.49094636 380.53479225 -542.9375 365.3125 C-542.17050781 364.26578125 -541.40351562 363.2190625 -540.61328125 362.140625 C-510.68319278 321.78611731 -467.83197328 297.46196152 -418.3125 290.0625 C-403.03074366 288.33539938 -387.02087128 288.18977079 -371.9375 291.3125 C-370.74125 291.50714844 -369.545 291.70179688 -368.3125 291.90234375 C-327.61824032 298.72509165 -294.4439585 319.05145877 -265.9375 348.3125 C-260.88487966 346.68773581 -257.02927749 343.67845353 -252.8125 340.5625 C-252.02552734 339.98757813 -251.23855469 339.41265625 -250.42773438 338.8203125 C-247.92648602 336.99042059 -245.43131704 335.15250369 -242.9375 333.3125 C-241.34635619 332.14062226 -239.75521038 330.96874722 -238.1640625 329.796875 C-235.79144002 328.04835592 -233.41936743 326.29910765 -231.04858398 324.5480957 C-221.98845611 317.86066001 -212.84792408 311.28570489 -203.70800781 304.70800781 C-194.46001192 298.05026022 -185.2493291 291.34643888 -176.08496094 284.57397461 C-167.74986955 278.42118369 -159.34910032 272.36009553 -150.9375 266.3125 C-152.15089982 262.32911675 -153.68036215 258.68188886 -155.55151367 254.96411133 C-176.76211519 212.44558846 -179.50808382 164.27379525 -164.96728516 119.28125 C-153.15357534 85.22370818 -130.68028177 55.77259156 -101.9375 34.3125 C-100.93203125 33.55066406 -99.9265625 32.78882813 -98.890625 32.00390625 C-80.89340837 18.925618 -60.50013198 10.29730641 -39.125 4.5 C-38.05161377 4.20730225 -38.05161377 4.20730225 -36.95654297 3.90869141 C-24.76936548 0.79244855 -12.53269494 -0.06511726 0 0 Z " fill="#C0D9FE" transform="translate(2040.9375,842.6875)"/>
<path d="M0 0 C3.81786824 1.74328281 5.36872979 3.71091224 8 7 C9.82752392 8.73880917 11.71956354 10.37346912 13.64453125 12.00390625 C15.26922124 13.38071651 16.86968126 14.78645817 18.44921875 16.21484375 C32.99786307 29.02014124 50.24849436 38.41424272 68 46 C69.12792969 46.48984375 70.25585938 46.9796875 71.41796875 47.484375 C81.99307145 51.65774074 93.22127181 53.44649682 104.35961914 55.50683594 C106.02114652 55.81717207 107.67715878 56.1606383 109.32177734 56.55078125 C112.98306029 57.16488887 116.6145576 57.18177104 120.31640625 57.203125 C121.12101791 57.21022995 121.92562958 57.2173349 122.75462341 57.22465515 C170.38843654 57.5493302 215.06640118 45.63624602 250.58984375 12.2578125 C252.67581261 10.3036958 254.80250917 8.45089009 257 6.625 C259.41872898 4.50861214 261.25420246 2.67004329 263 0 C266.09928651 0.60704151 268.12339887 1.58345523 270.66015625 3.44921875 C271.36140625 3.96033203 272.06265625 4.47144531 272.78515625 4.99804688 C273.91244141 5.83432617 273.91244141 5.83432617 275.0625 6.6875 C275.85398437 7.26693359 276.64546875 7.84636719 277.4609375 8.44335938 C279.97877987 10.28911626 282.48987711 12.14376242 285 14 C286.59224431 15.17345341 288.18468861 16.3466355 289.77734375 17.51953125 C292.14862512 19.26661055 294.51941362 21.01433798 296.88867188 22.76416016 C304.47385575 28.36311743 312.11467324 33.88321521 319.76611328 39.39111328 C323.51359784 42.09012128 327.25655845 44.79538884 331 47.5 C332.49997854 48.58336304 333.99997854 49.66669638 335.5 50.75 C338.5 52.91666667 341.5 55.08333333 344.5 57.25 C345.61544189 58.0555835 345.61544189 58.0555835 346.75341797 58.87744141 C348.24205913 59.95258911 349.73066632 61.02778384 351.21923828 62.10302734 C355.14274046 64.93700249 359.06696058 67.7699766 362.9921875 70.6015625 C363.80945312 71.19130859 364.62671875 71.78105469 365.46875 72.38867188 C367.03363654 73.51787978 368.59872956 74.64680161 370.1640625 75.77539062 C371.22367188 76.54012695 371.22367188 76.54012695 372.3046875 77.3203125 C372.92327637 77.76648926 373.54186523 78.21266602 374.17919922 78.67236328 C376.13314906 80.09708563 378.06845992 81.54508063 380 83 C379.37264442 87.69152872 377.39303282 91.56449133 375.3125 95.75 C369.4500362 107.95196736 365.24459841 120.1833804 362.1875 133.375 C361.98036377 134.26598389 361.77322754 135.15696777 361.55981445 136.07495117 C359.08911712 147.31646787 358.84032116 158.39630267 358.875 169.875 C358.87113281 171.14730469 358.86726563 172.41960937 358.86328125 173.73046875 C358.89320159 203.02247863 365.76705559 230.30628898 380 256 C380.87978516 257.61261719 380.87978516 257.61261719 381.77734375 259.2578125 C385.70083112 266.21510756 390.13424528 272.6708604 395 279 C395.99773437 280.30710937 395.99773437 280.30710937 397.015625 281.640625 C405.93713092 292.94119916 416.30415414 303.56450055 428 312 C429.05960938 312.76441406 430.11921875 313.52882813 431.2109375 314.31640625 C441.57919855 321.5816523 452.71518594 327.30353624 464 333 C460.69900496 344.49772888 457.13009544 355.87376849 453.31640625 367.2109375 C452.77783779 368.8199902 452.23958718 370.42914932 451.70162964 372.03840637 C450.57179696 375.41671551 449.44029663 378.79445881 448.30734253 382.17172241 C445.3770655 390.90754002 442.45818618 399.64716924 439.5390625 408.38671875 C439.25276159 409.24357836 438.96646069 410.10043797 438.67148399 410.98326302 C432.33900032 429.93844196 426.1188446 448.9291899 419.98608398 467.94995117 C419.33313229 469.96959105 418.67121466 471.98635603 418 474 C416.37443587 473.88256381 414.74956712 473.75550539 413.125 473.625 C412.22007812 473.55539062 411.31515625 473.48578125 410.3828125 473.4140625 C407 473 407 473 405.06689453 472.52563477 C396.03641186 470.32660883 386.86017187 470.64799418 377.625 470.6875 C376.27974747 470.69073273 376.27974747 470.69073273 374.90731812 470.69403076 C362.07865019 470.74367031 349.52273118 470.93488124 337 474 C336.15566406 474.20399414 335.31132812 474.40798828 334.44140625 474.61816406 C290.02868876 485.6891136 249.94621104 512.93689902 225.65869141 552.16650391 C216.82796844 566.99704822 209.98907623 582.48634179 205 599 C204.70222656 599.98097656 204.40445313 600.96195313 204.09765625 601.97265625 C201.58992887 611.04289409 201.07146022 619.35685798 200 629 C155.78 629 111.56 629 66 629 C65.01 622.73 64.02 616.46 63 610 C56.02546099 582.29034503 44.92027082 555.79376363 26 534 C25.31550781 533.2059375 24.63101562 532.411875 23.92578125 531.59375 C21.65841303 529.02108086 19.34339821 526.50359872 17 524 C15.67548828 522.576875 15.67548828 522.576875 14.32421875 521.125 C-6.2520825 499.51439337 -34.25660013 483.73519294 -63 476 C-63.89912109 475.75733398 -64.79824219 475.51466797 -65.72460938 475.26464844 C-91.90800623 468.53709319 -120.53364445 468.85598528 -147 474 C-148.99932462 474.33736063 -150.99921567 474.67140727 -153 475 C-171.0961425 419.79408096 -171.0961425 419.79408096 -177.4296875 400.08618164 C-179.72189642 392.95525055 -182.02852484 385.82924867 -184.34765625 378.70703125 C-184.63943253 377.81071487 -184.9312088 376.9143985 -185.23182678 375.99092102 C-186.66530899 371.58798231 -188.0999924 367.18543995 -189.53637695 362.78344727 C-191.03321912 358.19184021 -192.52193516 353.59768668 -194 349 C-194.21531372 348.33053345 -194.43062744 347.66106689 -194.65246582 346.97131348 C-195.23471455 345.15188682 -195.80902575 343.32992548 -196.3828125 341.5078125 C-196.69879395 340.50637207 -197.01477539 339.50493164 -197.34033203 338.47314453 C-198 336 -198 336 -198 333 C-197.44763672 332.72438232 -196.89527344 332.44876465 -196.32617188 332.16479492 C-147.58515671 307.67818923 -116.05576824 271.06438314 -98.78125 219.3515625 C-85.92234945 177.56013573 -91.87433409 129.83118086 -111 91 C-111.60457031 90.0615625 -112.20914062 89.123125 -112.83203125 88.15625 C-114 86 -114 86 -114.03125 83.96875 C-112.46032047 80.96970272 -110.20827941 79.51109857 -107.5 77.5 C-106.9239502 77.06913086 -106.34790039 76.63826172 -105.75439453 76.19433594 C-100.4804636 72.27911738 -95.10126671 68.50820391 -89.72045898 64.74194336 C-84.27615031 60.925794 -78.90625543 57.01802586 -73.5625 53.0625 C-65.16477358 46.84761924 -56.71277938 40.71242753 -48.23388672 34.60888672 C-44.48640205 31.90987864 -40.74348405 29.20455249 -37 26.5 C-35.51042086 25.42447336 -34.02083752 24.34895254 -32.53125 23.2734375 C-29.42563429 21.03064285 -26.32169799 18.78554639 -23.21875 16.5390625 C-15.51940751 10.9671907 -7.81942672 5.40287022 0 0 Z " fill="#2C2C2C" transform="translate(1912,1138)"/>
<path d="M0 0 C0.86476959 -0.00696899 1.72953918 -0.01393799 2.62051392 -0.02111816 C5.41372537 -0.03850635 8.2067366 -0.04484306 11 -0.046875 C12.42394073 -0.04838562 12.42394073 -0.04838562 13.87664795 -0.04992676 C27.78122919 -0.0399169 41.34645268 0.32432801 55 3.203125 C55.71607422 3.34766113 56.43214844 3.49219727 57.16992188 3.64111328 C81.18800358 8.62006824 103.74172575 19.2127457 121.68359375 36.0625 C123.39004848 37.63945986 125.16795244 39.13993613 126.98046875 40.59375 C144.12214332 55.40699529 154.76117339 79.88339377 161 101.203125 C161.35835937 102.40710937 161.71671875 103.61109375 162.0859375 104.8515625 C169.61487283 132.30670261 169.89575951 161.83622058 168.3125 190.078125 C168.25206009 191.15746307 168.25206009 191.15746307 168.19039917 192.25860596 C167.48466298 204.21887259 165.77153565 215.56955418 162.56542969 227.14257812 C162.09838237 228.84459859 161.68624439 230.56158334 161.2890625 232.28125 C153.17140908 266.64949695 131.17294578 296.84136216 101.44140625 315.4765625 C93.32459384 320.37556889 84.87594017 323.96760818 76 327.203125 C74.97003906 327.58339844 73.94007813 327.96367187 72.87890625 328.35546875 C54.12616387 334.95503944 34.90083183 336.55317887 15.19042969 336.46386719 C12.37152746 336.45311175 9.5532585 336.4638472 6.734375 336.4765625 C-3.36973738 336.48526515 -13.04691262 336.08979295 -23 334.203125 C-23.96518555 334.02088379 -24.93037109 333.83864258 -25.92480469 333.65087891 C-61.04631947 326.60818772 -93.95247921 309.29008229 -114.29296875 278.8984375 C-123.22458291 264.79588883 -131.03520503 249.51885705 -135 233.203125 C-135.1542041 232.57164551 -135.3084082 231.94016602 -135.46728516 231.28955078 C-136.51572456 226.97296755 -137.54191546 222.65165487 -138.51269531 218.31689453 C-138.82828814 216.94795528 -139.16493333 215.5836305 -139.52636719 214.22607422 C-141.25144944 207.43014961 -141.61229001 200.54157353 -142.00537109 193.56640625 C-142.12400232 191.47074932 -142.25443926 189.37608503 -142.38671875 187.28125 C-145.28552294 139.83656629 -140.16544435 85.341916 -107.296875 48.10546875 C-104.58388357 45.08693926 -101.79679676 42.14399917 -99 39.203125 C-98.41734375 38.55601562 -97.8346875 37.90890625 -97.234375 37.2421875 C-76.04813467 14.45092896 -44.49128844 5.96425382 -15 1.203125 C-14.07550049 1.02281738 -13.15100098 0.84250977 -12.19848633 0.65673828 C-8.11679795 0.07786819 -4.1176713 0.02210395 0 0 Z " fill="#89A8D5" transform="translate(2852,2110.796875)"/>
<path d="M0 0 C182.59803922 0 182.59803922 0 227 42 C228.32837891 43.21429687 228.32837891 43.21429687 229.68359375 44.453125 C248.4071001 62.19397924 259.85434972 86.19160903 266.1875 110.875 C266.43781982 111.8431665 266.68813965 112.81133301 266.94604492 113.80883789 C270.62526157 128.75837728 271.41132109 143.37361888 271.375 158.6875 C271.3737915 159.63164764 271.37258301 160.57579529 271.37133789 161.54855347 C271.21635095 206.33647079 260.17245443 248.3323289 228.8125 281.5 C210.71687639 298.92696315 187.98203993 310.95264616 164 318 C162.906875 318.34546875 161.81375 318.6909375 160.6875 319.046875 C152.58567153 321.44059705 144.40051714 322.88624241 136.0625 324.1875 C135.03479492 324.35451416 134.00708984 324.52152832 132.94824219 324.69360352 C90.74301481 330.90044251 38.67530612 327 0 327 C0 219.09 0 111.18 0 0 Z " fill="#89A8D5" transform="translate(1110,2116)"/>
<path d="M0 0 C1.01578125 0.12117188 2.0315625 0.24234375 3.078125 0.3671875 C36.28912429 4.81346883 68.04995547 26.97981205 88 53 C88.64324219 53.79277344 89.28648437 54.58554688 89.94921875 55.40234375 C108.62199268 79.37773097 117.22371707 108.91927478 117.25 138.9375 C117.25067474 139.62941437 117.25134949 140.32132874 117.25204468 141.03421021 C117.23560573 151.64961915 116.71566129 161.68266834 114 172 C113.82839355 172.65387695 113.65678711 173.30775391 113.47998047 173.98144531 C104.13060833 208.65516684 82.67821955 239.83935137 52 259 C51.43216797 259.35884277 50.86433594 259.71768555 50.27929688 260.08740234 C42.22558285 265.11075892 33.94435907 268.98697785 25.04052734 272.24511719 C23.52834411 272.80454176 22.02461033 273.38692189 20.52587891 273.98144531 C-11.10352724 286.20125182 -49.23533569 283.35696614 -80 270 C-90.71295336 265.06778848 -100.79136723 259.40757526 -110 252 C-110.92039062 251.28070312 -111.84078125 250.56140625 -112.7890625 249.8203125 C-141.00756202 227.35434457 -159.92897541 194.80512206 -164.57421875 158.921875 C-168.46339357 120.71452323 -160.33889682 83.57456979 -136.4453125 52.9375 C-114.88560338 27.03829671 -86.88159022 6.76004014 -53.125 0.875 C-51.75021484 0.62169922 -51.75021484 0.62169922 -50.34765625 0.36328125 C-33.3927477 -2.66523265 -16.97848358 -2.50097995 0 0 Z " fill="#8AA9D6" transform="translate(1668,1169)"/>
<path d="M0 0 C0.99257812 0.10957031 1.98515625 0.21914062 3.0078125 0.33203125 C34.30973595 4.29926667 66.84270023 25.94174666 85.89453125 50.25390625 C86.58933594 51.16011719 87.28414062 52.06632812 88 53 C88.64324219 53.79277344 89.28648437 54.58554688 89.94921875 55.40234375 C112.50195606 84.3595095 120.25463592 121.50344438 116.50390625 157.5078125 C111.79957517 194.76342242 91.72808055 228.81381529 62.2890625 252.01953125 C58.96248052 254.5128493 55.52499166 256.79840135 52 259 C51.43216797 259.35884277 50.86433594 259.71768555 50.27929688 260.08740234 C42.22558285 265.11075892 33.94435907 268.98697785 25.04052734 272.24511719 C23.52834411 272.80454176 22.02461033 273.38692189 20.52587891 273.98144531 C-11.10352724 286.20125182 -49.23533569 283.35696614 -80 270 C-90.69185366 265.07750272 -100.85322893 259.45393583 -110 252 C-110.52819336 251.57041992 -111.05638672 251.14083984 -111.60058594 250.69824219 C-140.38914261 227.1559669 -160.5096842 194.91216333 -164.81689453 157.43579102 C-165.25143063 151.65530211 -165.24415223 145.85661274 -165.25 140.0625 C-165.25100708 139.37091797 -165.25201416 138.67933594 -165.25305176 137.96679688 C-165.24257994 127.33236237 -164.58114184 117.3580887 -162 107 C-161.73316406 105.77410156 -161.46632813 104.54820313 -161.19140625 103.28515625 C-155.71435555 80.08680372 -143.14591145 59.30478929 -127 42 C-126.19046875 41.10925781 -125.3809375 40.21851563 -124.546875 39.30078125 C-106.14109151 19.88938376 -79.38388637 5.45290906 -53.125 0.875 C-51.75021484 0.62169922 -51.75021484 0.62169922 -50.34765625 0.36328125 C-33.3881006 -2.66606273 -16.98285986 -2.48917177 0 0 Z " fill="#8AA9D6" transform="translate(2470,1169)"/>
<path d="M0 0 C30.47496373 23.22821766 51.47891544 54.78197657 58.31445312 92.83154297 C62.95523565 131.51960496 54.58626294 170.07186496 30.69238281 201.2265625 C7.11326204 230.86621431 -25.34354969 250.83460266 -63.10766602 256.09130859 C-69.4897023 256.79299216 -75.83270681 256.85997195 -82.24804688 256.83154297 C-82.92502625 256.82905548 -83.60200562 256.82656799 -84.29949951 256.82400513 C-122.1646445 256.60960267 -154.92064308 241.64636242 -181.99804688 215.51904297 C-182.71476562 214.85388672 -183.43148437 214.18873047 -184.16992188 213.50341797 C-206.92784925 191.83787111 -222.26111187 157.90456534 -223.2310791 126.63504028 C-223.98435893 95.43434871 -223.98435893 95.43434871 -219.99804688 81.51904297 C-219.77761719 80.72353027 -219.5571875 79.92801758 -219.33007812 79.10839844 C-212.29706242 54.40446564 -199.69114348 33.91446096 -181.99804688 15.51904297 C-181.08732422 14.49617188 -181.08732422 14.49617188 -180.15820312 13.45263672 C-169.52568728 1.90394037 -155.09812375 -6.8213116 -140.99804688 -13.48095703 C-139.90363281 -14.01076172 -138.80921875 -14.54056641 -137.68164062 -15.08642578 C-93.7302331 -34.53704868 -38.60092001 -28.61109247 0 0 Z " fill="#8AA9D6" transform="translate(2368.998046875,1667.48095703125)"/>
<path d="M0 0 C1.47474085 0.22735446 2.95005153 0.45103022 4.42578125 0.671875 C39.9380382 6.37996697 71.57923307 28.48302937 92.66992188 57.12646484 C114.97409569 88.54390792 123.35157674 126.82692581 117.0390625 164.7578125 C112.62392465 188.50124766 101.84351155 211.76153903 86 230 C85.31421875 230.80695313 84.6284375 231.61390625 83.921875 232.4453125 C67.71523122 251.04214475 47.92211281 264.07821956 25 273 C24.09894531 273.36738281 23.19789063 273.73476562 22.26953125 274.11328125 C-8.76941842 285.71369678 -46.57373217 283.86769519 -76.75 270.51171875 C-87.02916487 265.79866974 -96.98364443 260.88017287 -106 254 C-107.31871094 253.01 -107.31871094 253.01 -108.6640625 252 C-132.51595143 233.30341848 -148.64593151 209.70584796 -158 181 C-158.26433838 180.19763916 -158.52867676 179.39527832 -158.80102539 178.56860352 C-160.67002781 172.65848352 -161.87070979 166.82826206 -162.6875 160.6875 C-162.81342529 159.74253662 -162.93935059 158.79757324 -163.0690918 157.82397461 C-167.67338514 120.26952513 -158.01118999 82.76374367 -134.75 52.75 C-110.29389168 22.38565705 -75.52313603 2.61696061 -36.67480469 -1.76123047 C-24.34907485 -2.86150099 -12.13494231 -2.40185279 0 0 Z " fill="#8AA9D6" transform="translate(2067,880)"/>
<path d="M0 0 C0.70093781 0.00432037 1.40187561 0.00864075 2.12405396 0.01309204 C12.75489267 0.08981895 22.85543774 0.68345437 33.1875 3.375 C33.86167969 3.54128906 34.53585937 3.70757813 35.23046875 3.87890625 C59.80856918 10.01207364 80.52271699 22.42183465 99.1875 39.375 C99.83589844 39.9525 100.48429687 40.53 101.15234375 41.125 C119.23420542 58.14322275 132.42464182 82.38746847 138.1875 106.375 C138.47238281 107.41140625 138.75726562 108.4478125 139.05078125 109.515625 C143.89020568 127.40544044 144.41969301 149.32787642 140.1875 167.375 C140.02620605 168.07222168 139.86491211 168.76944336 139.69873047 169.48779297 C133.02694259 197.82649519 121.18097166 220.13429853 101.1875 241.375 C100.36572266 242.27605469 100.36572266 242.27605469 99.52734375 243.1953125 C77.64054003 266.31896262 44.120014 280.71952528 12.65722656 282.58422852 C-27.08282643 283.6304599 -63.85683206 274.42169263 -93.50341797 246.52270508 C-94.9439498 245.14448329 -96.37830167 243.75981133 -97.8125 242.375 C-98.66585938 241.58480469 -99.51921875 240.79460937 -100.3984375 239.98046875 C-124.92963298 216.64874813 -138.87440704 182.88924061 -140.125 149.32421875 C-141.03099178 110.11490803 -130.03410861 74.41696581 -102.83496094 45.5612793 C-101.49678264 44.16331904 -100.1547231 42.76907718 -98.8125 41.375 C-98.12027344 40.60800781 -97.42804688 39.84101562 -96.71484375 39.05078125 C-86.13436189 27.69562056 -72.55946828 19.60597801 -58.55957031 13.18603516 C-57.00081747 12.46242183 -55.463443 11.69315954 -53.9296875 10.91796875 C-46.97608097 7.48267955 -39.77688841 5.56709896 -32.22875977 3.91552734 C-30.39241859 3.5047302 -28.56324919 3.06172008 -26.73803711 2.60400391 C-17.75836414 0.46190028 -9.20718497 -0.10806201 0 0 Z " fill="#8AA9D6" transform="translate(1801.8125,1641.625)"/>
<path d="M0 0 C29.04 0 58.08 0 88 0 C92.29 7.59 96.58 15.18 101 23 C103.28051011 26.94523567 105.56488416 30.88500576 107.875 34.8125 C112.78185941 43.19020008 117.65515223 51.58628542 122.5 60 C127.30839128 68.34805648 132.13897117 76.6824834 137 85 C142.49945536 94.4099033 147.95449196 103.84470563 153.39453125 113.2890625 C157.57349128 120.5395149 161.77740506 127.77488269 166 135 C171.49945536 144.4099033 176.95449196 153.84470563 182.39453125 163.2890625 C187.14355218 171.52856466 191.92890124 179.746291 196.72827148 187.95654297 C201.03485265 195.32973928 205.30356837 202.72419772 209.5625 210.125 C216.28503951 221.80362355 223.11397734 233.41712213 230 245 C230.06050381 235.11386999 229.88894906 225.25617463 229.5625 215.375 C229.52318359 214.06015625 229.48386719 212.7453125 229.44335938 211.390625 C229.40146484 210.09382813 229.35957031 208.79703125 229.31640625 207.4609375 C229.27974854 206.31415527 229.24309082 205.16737305 229.20532227 203.98583984 C229.09624722 201.86840925 228.97514096 199.75018893 228.76519012 197.64037132 C227.82847771 188.2163562 227.86614781 178.83841091 227.88647461 169.37988281 C227.88675718 167.52591961 227.88659739 165.6719563 227.8860321 163.81799316 C227.88574685 158.81885326 227.89159953 153.81973766 227.89860606 148.82060337 C227.90488496 143.58358956 227.90544697 138.3465751 227.90663147 133.10955811 C227.90973146 123.20764795 227.9179268 113.30574891 227.92798096 103.40384364 C227.93918358 92.12445862 227.94466298 80.84507305 227.94967639 69.56568384 C227.9601106 46.37711498 227.97843943 23.18856137 228 0 C248.79 0 269.58 0 291 0 C291 108.24 291 216.48 291 328 C261.63 328 232.26 328 202 328 C186.08362676 300.71478873 186.08362676 300.71478873 180.0625 290.125 C178.71049197 287.7521153 177.35735636 285.37987491 176.00390625 283.0078125 C175.66932404 282.4213092 175.33474182 281.83480591 174.99002075 281.23052979 C171.51417285 275.14164882 168.0084127 269.07015489 164.5 263 C159.28357514 253.97469154 154.10085025 244.93072197 148.9375 235.875 C144.00403214 227.22304049 139.03171489 218.59527875 134 210 C128.99254896 201.44450589 124.03845141 192.85975755 119.125 184.25 C118.79211975 183.6667395 118.4592395 183.083479 118.11627197 182.48254395 C115.40199484 177.72563102 112.69057169 172.96709282 109.97924805 168.20849609 C107.61248568 164.05491026 105.24461806 159.90195739 102.875 155.75 C102.54195862 155.16641724 102.20891724 154.58283447 101.86578369 153.98156738 C96.73363621 144.9927579 91.53731768 136.04289642 86.30834961 127.11010742 C81.63812771 119.12067544 77.02784536 111.09798801 72.4375 103.0625 C72.09952393 102.47122314 71.76154785 101.87994629 71.41333008 101.27075195 C70.44016352 99.56765093 69.46811435 97.86391158 68.49609375 96.16015625 C67.89651855 95.10973145 67.29694336 94.05930664 66.67919922 92.97705078 C64.74460585 89.54721194 62.87027867 86.08719798 61.02758789 82.60717773 C60.08361495 80.82819928 60.08361495 80.82819928 58 80 C58.22437996 81.65898567 58.22437996 81.65898567 58.45329285 83.35148621 C64.53699401 132.2703833 62.37945078 182.69319497 62.21608078 231.86374104 C62.18177575 242.37988465 62.16586188 252.89603612 62.15097082 263.41222227 C62.12009946 284.94155853 62.06537123 306.47073895 62 328 C41.54 328 21.08 328 0 328 C0 219.76 0 111.52 0 0 Z " fill="#89A8D5" transform="translate(1706,2115)"/>
<path d="M0 0 C22.77 0 45.54 0 69 0 C69.029729 9.72065918 69.029729 9.72065918 69.06005859 19.63769531 C69.12696101 41.04748603 69.20450175 62.45722845 69.28752708 83.86696243 C69.3376061 96.84781979 69.38404956 109.82867099 69.421875 122.80957031 C69.45486061 134.12635417 69.49472808 145.44308951 69.54279006 156.75981975 C69.56798972 162.74951759 69.58979024 168.73918352 69.60334396 174.72891998 C69.61622366 180.37266886 69.63834138 186.01630791 69.66738319 191.65999603 C69.67641292 193.72546701 69.68213837 195.79095564 69.68421364 197.85644531 C69.6998422 211.05485562 70.22134629 223.52022056 74.3125 236.1875 C74.5305127 236.86748047 74.74852539 237.54746094 74.97314453 238.24804688 C79.25346747 251.13517302 85.97026862 259.96744171 97.94921875 266.53125 C102.22347064 268.58902044 106.40057228 269.90425141 111 271 C112.09115112 271.26744019 112.09115112 271.26744019 113.2043457 271.5402832 C132.48519251 275.84987707 156.38660995 275.10421502 173.640625 264.62109375 C181.15414602 259.45865795 185.85387214 254.15091046 190 246 C190.45375 245.12859375 190.9075 244.2571875 191.375 243.359375 C198.68762262 227.77652442 198.44712465 209.96448215 198.43237305 193.10668945 C198.44141458 190.98568154 198.45174755 188.86467882 198.46325684 186.74368286 C198.49057229 181.04869439 198.50007634 175.35380573 198.50611091 169.65876031 C198.5155616 163.68369695 198.54176982 157.70870624 198.56611633 151.73368835 C198.60960223 140.44726691 198.63825879 129.16085972 198.66143972 117.87438029 C198.68858797 105.01319893 198.73249315 92.15209129 198.77772844 79.29096282 C198.87031795 52.86067132 198.93990453 26.43038673 199 0 C221.77 0 244.54 0 268 0 C268.06622759 29.18972733 268.1215849 58.37940653 268.15319599 87.56918982 C268.15694778 91.02106158 268.16083078 94.47293317 268.16479492 97.92480469 C268.16558185 98.61196435 268.16636878 99.29912402 268.16717956 100.00710671 C268.18020735 111.11039942 268.20384659 122.21364518 268.23145839 133.3169101 C268.25958593 144.72332364 268.27596742 156.12969921 268.28226548 167.53614843 C268.28616775 173.93731941 268.29530429 180.33838417 268.31719017 186.73952103 C268.33764829 192.77230634 268.34381498 198.80494231 268.33932304 204.83775902 C268.34014408 207.04431535 268.3460538 209.250877 268.35761642 211.45740318 C268.4154467 223.06906863 268.1569274 233.74637727 265 245 C264.80799106 245.7571763 264.61598211 246.51435261 264.41815472 247.29447365 C257.06629977 275.51857281 238.99526027 299.17707644 213.84423828 313.95654297 C189.86145162 327.52583476 164.09377819 332.18098056 136.82714844 332.24023438 C134.16568681 332.24985296 131.50502847 332.28091213 128.84375 332.3125 C91.15740753 332.54539019 56.94094758 321.76001798 29.3125 295.625 C18.91830618 284.85780879 11.95416376 271.97542817 7 258 C6.6390625 257.07832031 6.278125 256.15664062 5.90625 255.20703125 C-0.3152475 238.49853985 -0.43587959 220.57651171 -0.34057617 202.98339844 C-0.33972756 200.75387585 -0.3402096 198.52435243 -0.34190369 196.29483032 C-0.34275592 190.30852669 -0.32525677 184.32240754 -0.30418181 178.33614635 C-0.28528471 172.05550792 -0.28365439 165.77486414 -0.28010559 159.49420166 C-0.27187429 148.97396919 -0.25320255 138.45379298 -0.22631836 127.93359375 C-0.19868475 117.10872729 -0.17749703 106.28387909 -0.16479492 95.45898438 C-0.16361267 94.45427458 -0.16361267 94.45427458 -0.16240653 93.42926762 C-0.15849077 90.06828031 -0.1546998 86.70729288 -0.15097082 83.34630537 C-0.11970791 55.56414641 -0.06474389 27.7821025 0 0 Z " fill="#89A8D5" transform="translate(2077,2115)"/>
<path d="M0 0 C62.37 0 124.74 0 189 0 C189 18.81 189 37.62 189 57 C149.73 57 110.46 57 70 57 C70 80.76 70 104.52 70 129 C106.63 129 143.26 129 181 129 C181 147.81 181 166.62 181 186 C144.04 186 107.08 186 69 186 C69 214.05 69 242.1 69 271 C108.6 271 148.2 271 189 271 C189 289.81 189 308.62 189 328 C126.63 328 64.26 328 0 328 C0 219.76 0 111.52 0 0 Z " fill="#89A8D4" transform="translate(1449,2115)"/>
<path d="M0 0 C23.1 0 46.2 0 70 0 C80.31069975 30.93209926 80.31069975 30.93209926 83.48046875 41.2109375 C84.2486079 43.68213159 85.01675608 46.15332287 85.78491211 48.62451172 C86.38085782 50.54728489 86.97680295 52.47005824 87.57270432 54.39284515 C89.52618885 60.69104946 91.48937583 66.98624009 93.453125 73.28125 C93.79007543 74.36161341 93.79007543 74.36161341 94.13383293 75.46380234 C99.02708586 91.14581665 104.01687598 106.79661092 109.02078247 122.44360352 C112.4270147 133.09576601 115.82252701 143.75135886 119.21760273 154.4070816 C120.1672788 157.38767894 121.11751573 160.36809471 122.06890869 163.34814453 C131.55162479 193.05289888 140.25083954 222.90395927 146.71595764 253.4284668 C147.2314771 257.01191978 147.2314771 257.01191978 149 260 C149.15855469 259.08863281 149.31710938 258.17726563 149.48046875 257.23828125 C155.51928288 223.7078492 164.83290094 190.06575004 176.5 158.0625 C178.26946671 153.19100523 179.83031338 148.29519234 181.25 143.3125 C183.4410169 135.63042717 185.9476259 128.06894747 188.5 120.5 C190.96023691 113.19973161 193.39927957 105.9125421 195.5 98.5 C197.94292517 89.87996405 200.84257621 81.4184589 203.703125 72.9296875 C205.75467067 66.81608139 207.74169939 60.70428929 209.5 54.5 C211.93767615 45.89848557 214.82911776 37.45449617 217.68554688 28.98461914 C220.14892759 21.64796101 222.48313582 14.29408306 224.59179688 6.84765625 C225.91842666 2.16314668 225.91842666 2.16314668 227 0 C250.1 0 273.2 0 297 0 C293.62491596 12.37530816 293.62491596 12.37530816 291.86206055 17.56494141 C291.26867386 19.31962486 291.26867386 19.31962486 290.66329956 21.10975647 C290.03139206 22.96195045 290.03139206 22.96195045 289.38671875 24.8515625 C288.93601365 26.18023993 288.48559137 27.50901332 288.03543091 28.83787537 C286.83783546 32.37043745 285.6362083 35.90161526 284.43371964 39.43251419 C283.17507532 43.13056723 281.92020109 46.82989946 280.66479492 50.52905273 C274.86033222 67.62667459 269.03595896 84.71755458 263.19140625 101.80151367 C258.33293816 116.00543156 253.50838357 130.220787 248.6875 144.4375 C247.05861968 149.24089421 245.42972904 154.04428492 243.80078125 158.84765625 C243.39816574 160.03487778 242.99555023 161.2220993 242.58073425 162.44529724 C238.51799612 174.42385098 234.44756548 186.39978442 230.375 198.375 C230.02819183 199.3947995 229.68138367 200.414599 229.32406616 201.46530151 C227.58041194 206.59246499 225.8366262 211.71958373 224.09277344 216.84667969 C221.62521215 224.10171937 219.15831425 231.35698456 216.6917572 238.61236572 C214.9308922 243.79189936 213.1696475 248.97130312 211.4074707 254.15039062 C208.07378049 263.94956505 204.74441645 273.75015809 201.42776489 283.55511475 C199.85368155 288.2078068 198.27751098 292.85979054 196.70117188 297.51171875 C195.9473571 299.73825228 195.19457516 301.96513579 194.44287109 304.19238281 C193.4032956 307.27236445 192.36022958 310.35114337 191.31640625 313.4296875 C191.00888931 314.34386444 190.70137238 315.25804138 190.38453674 316.19992065 C189.95551308 317.46196823 189.95551308 317.46196823 189.51782227 318.74951172 C189.2715358 319.47806366 189.02524933 320.2066156 188.77149963 320.95724487 C187.98854684 323.03032535 186.99102752 325.01794496 186 327 C160.92 327 135.84 327 110 327 C107.48375 319.430625 104.9675 311.86125 102.375 304.0625 C97.11709859 288.27277933 91.83555454 272.49238708 86.4375 256.75 C80.2113177 238.59218236 74.05957599 220.40963037 67.91796112 202.22307968 C60.90409501 181.45394475 53.88675081 160.68616651 46.8125 139.9375 C40.05733164 120.12398736 33.33588778 100.29912812 26.62699127 80.46990871 C25.5210576 77.20122601 24.41489754 73.93261996 23.30859375 70.6640625 C23.08973763 70.01744219 22.8708815 69.37082188 22.64539337 68.70460701 C19.54654388 59.5504767 16.43541763 50.40059731 13.31449127 41.2539711 C12.24919331 38.13129355 11.18500045 35.00823934 10.12060547 31.88525391 C8.91263576 28.34107164 7.70366949 24.79724785 6.49127197 21.25457764 C5.39129574 18.04039901 4.29489271 14.82502225 3.19921875 11.609375 C2.87220474 10.65735199 2.54519073 9.70532898 2.20826721 8.72445679 C1.91483932 7.86115753 1.62141144 6.99785828 1.3190918 6.10839844 C1.06266403 5.35830505 0.80623627 4.60821167 0.54203796 3.83538818 C0 2 0 2 0 0 Z " fill="#89A8D5" transform="translate(2385,2116)"/>
<path d="M0 0 C1.03037888 0.00181274 1.03037888 0.00181274 2.08157349 0.00366211 C22.67935843 0.10201095 41.68978311 4.51606298 56.98022461 19.16845703 C79.71269891 42.14163276 84.1602404 76.53653764 84.1875 107.375 C84.18817474 108.06764954 84.18884949 108.76029907 84.18954468 109.47393799 C84.13919445 142.37851748 80.01324298 176.05557702 56.75 201.0625 C39.45542737 217.61672278 17.55940691 221.038878 -5.390625 220.62109375 C-25.84127727 219.93553986 -44.00003569 212.50187186 -58.23046875 197.546875 C-78.5918913 173.40838686 -82.50862903 140.51918827 -82.5 110.125 C-82.5010675 109.31294098 -82.50213501 108.50088196 -82.50323486 107.66421509 C-82.44762761 78.02735378 -78.11328108 46.5328236 -58.0625 23.375 C-57.41796875 22.62347656 -56.7734375 21.87195312 -56.109375 21.09765625 C-41.33530794 5.09241693 -21.03440622 -0.06828429 0 0 Z " fill="#2C2C2C" transform="translate(2864.0625,2168.625)"/>
<path d="M0 0 C79.77832512 0 79.77832512 0 105 24 C110.89750584 30.31729359 115.23243627 37.24958318 119 45 C119.43054687 45.86625 119.86109375 46.7325 120.3046875 47.625 C127.05707295 62.38797937 130.06601365 79.21379376 130.23828125 95.3828125 C130.24812042 96.15150162 130.25795959 96.92019073 130.26809692 97.71217346 C130.60304078 130.67010918 127.7578663 163.53478355 103.62109375 188.37890625 C84.51859819 207.48140181 61.09813673 212.39396082 35 214 C23.45 214 11.9 214 0 214 C0 143.38 0 72.76 0 0 Z " fill="#2C2C2C" transform="translate(1179,2172)"/>
<path d="M0 0 C63.73127948 0 63.73127948 0 75 10.1875 C81.08215559 17.10242016 82.70897205 24.77012114 82.37890625 33.8203125 C81.48461298 41.32500033 78.73044749 47.31768812 73.1484375 52.4609375 C69.11411514 55.35097934 64.60042144 57.19477133 60 59 C60.75023437 59.18433594 61.50046875 59.36867188 62.2734375 59.55859375 C71.45728787 62.16107024 77.77489109 66.33003519 83.5078125 74.0234375 C87.63168232 81.55022089 87.11654755 91.75222651 85.375 99.9375 C82.57260628 107.94433919 76.93852463 114.52178629 69.6875 118.875 C46.87022496 129.21883135 27.34001188 124 0 124 C0 83.08 0 42.16 0 0 Z " fill="#87A5D0" transform="translate(1535,2588)"/>
<path d="M0 0 C57.85294118 0 57.85294118 0 69.796875 10.59375 C76.92840784 18.07832902 78.59533793 26.66405417 78.47265625 36.66699219 C78.12027693 45.28113453 75.87406669 53.04945746 69.84375 59.43359375 C65.16807228 63.40593859 59.9948746 66.61705371 54 68 C59.33051062 77.44138893 64.83381432 86.75666387 70.5 96 C76.16618568 105.24333613 81.66948938 114.55861107 87 124 C84.28621779 124.24478436 81.59453029 124.42160328 78.875 124.5625 C78.11445313 124.63791016 77.35390625 124.71332031 76.5703125 124.79101562 C74.1249954 124.88587706 72.32522006 124.77838328 70 124 C67.30855595 121.40284998 65.74842314 118.27906815 64 115 C62.73309268 112.81694069 61.4647707 110.63470196 60.1953125 108.453125 C58.8311324 106.05625033 57.47794424 103.6532308 56.125 101.25 C55.44959166 100.05187304 54.77381184 98.85395541 54.09765625 97.65625 C53.7638092 97.06455521 53.42996216 96.47286041 53.08599854 95.86323547 C52.07352495 94.08377101 51.04242314 92.31598692 50.01074219 90.54760742 C48.62684829 88.16030355 47.37757048 85.74680279 46.18457031 83.2590332 C42.93684789 76.68768278 42.93684789 76.68768278 36.93408203 72.88916016 C33.3589982 72.49261262 30.09523638 72.50237148 26.5 72.6875 C20.3125 72.8421875 20.3125 72.8421875 14 73 C14 89.83 14 106.66 14 124 C9.38 124 4.76 124 0 124 C0 83.08 0 42.16 0 0 Z " fill="#88A7D3" transform="translate(2873,2588)"/>
<path d="M0 0 C7.26 0 14.52 0 22 0 C32.19598809 25.97308988 42.23473686 52.0033568 52.16674805 78.07836914 C52.60646439 79.23262894 53.04618073 80.38688873 53.4992218 81.5761261 C54.32676292 83.74902727 55.15384622 85.92210288 55.98039246 88.09538269 C56.34957291 89.0651857 56.71875336 90.03498871 57.09912109 91.03417969 C57.41948334 91.87648132 57.73984558 92.71878296 58.06991577 93.58660889 C59.02560829 96.06644864 60.00781119 98.53456114 61 101 C67.59582084 85.18792563 73.86114215 69.2679439 79.9375 53.25 C80.27637238 52.35687103 80.61524475 51.46374207 80.96438599 50.54354858 C82.32414054 46.9590426 83.68352931 43.37439822 85.04234314 39.78953552 C88.05582463 31.8429641 91.09083904 23.90485114 94.15115356 15.97619629 C94.67227871 14.62511761 95.19237212 13.27364049 95.71139526 11.92175293 C96.41827956 10.0809499 97.12894741 8.24160109 97.83984375 6.40234375 C98.43333618 4.86308228 98.43333618 4.86308228 99.03881836 3.29272461 C100 1 100 1 101 0 C108.26 0 115.52 0 123 0 C123 40.92 123 81.84 123 124 C118.05 124 113.1 124 108 124 C108 88.69 108 53.38 108 17 C102.72 30.86 97.44 44.72 92 59 C88.63447092 67.71218521 85.26518403 76.42245328 81.875 85.125 C76.84064945 98.055638 71.82811497 110.99071609 67 124 C63.04 124 59.08 124 55 124 C52.06784022 117.53971301 49.39808435 111.02511096 46.8671875 104.3984375 C46.47161652 103.36844635 46.07604553 102.3384552 45.66848755 101.2772522 C44.40177561 97.97734657 43.13832711 94.67620274 41.875 91.375 C41.0822453 89.30851162 40.28927754 87.24210497 39.49609375 85.17578125 C36.66098381 77.78503443 33.83074662 70.39241913 31 63 C25.06 47.49 19.12 31.98 13 16 C13 51.64 13 87.28 13 124 C8.71 124 4.42 124 0 124 C0 83.08 0 42.16 0 0 Z " fill="#87A6D2" transform="translate(1980,2588)"/>
<path d="M0 0 C5.61 0 11.22 0 17 0 C22.88634166 5.99591615 22.88634166 5.99591615 24.38671875 8.78808594 C24.7223584 9.39422729 25.05799805 10.00036865 25.40380859 10.62487793 C25.91548584 11.55306335 25.91548584 11.55306335 26.4375 12.5 C27.18949093 13.75383545 27.94736053 15.00416306 28.7109375 16.25097656 C30.20002774 18.70205819 31.65473812 21.16812009 33.07763672 23.65820312 C35.06715277 27.116737 37.15423686 30.49343466 39.29638672 33.85839844 C40.47967511 35.71805735 41.63835305 37.59118798 42.79296875 39.46875 C45.44392358 43.74607916 48.24581118 47.91832761 51.05200195 52.09472656 C55.03045338 58.02219799 58.92128846 64.00473215 62.80493164 69.99462891 C65.90466333 74.77530054 69.01118295 79.55134788 72.12890625 84.3203125 C73.15818237 85.89522461 73.15818237 85.89522461 74.20825195 87.50195312 C75.55103392 89.55586523 76.89459902 91.6092656 78.23901367 93.66210938 C78.84592041 94.59087891 79.45282715 95.51964844 80.078125 96.4765625 C80.61856445 97.30236816 81.15900391 98.12817383 81.71582031 98.97900391 C83 101 83 101 84 103 C84 69.01 84 35.02 84 0 C88.29 0 92.58 0 97 0 C97 40.92 97 81.84 97 124 C80 124 80 124 76.34765625 120.79296875 C75.15380859 118.61645508 75.15380859 118.61645508 74.0625 116.1875 C73.12553144 114.44151522 72.18103706 112.69955558 71.23046875 110.9609375 C70.72950684 110.00799805 70.22854492 109.05505859 69.71240234 108.07324219 C66.81172023 102.86739866 63.42323427 97.98744884 60.06906128 93.06765747 C54.31686954 84.61247809 48.70380892 76.07598677 43.34106445 67.36816406 C40.2819936 62.41051964 37.07814285 57.56222031 33.8293457 52.72729492 C30.56818604 47.86917233 27.36513511 42.97564173 24.1875 38.0625 C23.74349854 37.37679932 23.29949707 36.69109863 22.84204102 35.98461914 C19.84923773 31.3494581 16.92485683 26.67977093 14 22 C14 55.66 14 89.32 14 124 C9.38 124 4.76 124 0 124 C0 83.08 0 42.16 0 0 Z " fill="#87A6D1" transform="translate(2519,2588)"/>
<path d="M0 0 C1.21236328 -0.01224609 2.42472656 -0.02449219 3.67382812 -0.03710938 C13.63224856 -0.05312828 23.33884859 0.62224286 32.6875 4.3125 C33.60015625 4.66570313 34.5128125 5.01890625 35.453125 5.3828125 C36.43539062 5.78113281 36.43539062 5.78113281 37.4375 6.1875 C36.84645235 11.03409077 35.45805843 14.79498167 33.4375 19.1875 C25.21808952 17.40662773 25.21808952 17.40662773 21.74145508 16.43066406 C14.3518189 14.37999408 7.52606721 13.69795192 -0.125 13.75 C-1.69411133 13.7200293 -1.69411133 13.7200293 -3.29492188 13.68945312 C-15.03692707 13.69674177 -24.66520551 17.54334558 -33.5625 25.1875 C-44.28403815 36.28523247 -46.9498653 51.06986264 -46.93554688 65.9699707 C-46.58822775 78.5617861 -43.02473734 92.39889827 -34.5 101.9375 C-24.3947256 111.27053728 -11.95604818 113.53685585 1.25 113.4375 C2.77463867 113.44910156 2.77463867 113.44910156 4.33007812 113.4609375 C5.34134766 113.45835937 6.35261719 113.45578125 7.39453125 113.453125 C8.29147705 113.45086914 9.18842285 113.44861328 10.11254883 113.44628906 C14.9319542 113.07118298 19.68149151 112.05222882 24.4375 111.1875 C24.7675 98.6475 25.0975 86.1075 25.4375 73.1875 C16.5275 73.1875 7.6175 73.1875 -1.5625 73.1875 C-1.5625 68.8975 -1.5625 64.6075 -1.5625 60.1875 C12.2975 60.1875 26.1575 60.1875 40.4375 60.1875 C40.4375 79.9875 40.4375 99.7875 40.4375 120.1875 C27.3567723 125.79352616 13.43639108 127.54965847 -0.75 127.5625 C-1.66845703 127.56403076 -2.58691406 127.56556152 -3.53320312 127.56713867 C-20.53421187 127.29168786 -36.18686156 122.0524074 -48.1875 109.6875 C-62.36076089 93.06117473 -63.89138025 72.81926346 -62.39697266 51.86669922 C-61.09540611 38.01744621 -54.81265738 24.33320175 -44.5546875 14.8046875 C-30.98809877 3.79180959 -17.10298525 0.00889391 0 0 Z " fill="#87A6D2" transform="translate(2706.5625,2586.8125)"/>
<path d="M0 0 C4.62 0 9.24 0 14 0 C14 17.49 14 34.98 14 53 C35.78 53 57.56 53 80 53 C80 35.51 80 18.02 80 0 C84.62 0 89.24 0 94 0 C94 40.92 94 81.84 94 124 C89.05 124 84.1 124 79 124 C79 104.86 79 85.72 79 66 C57.88 66 36.76 66 15 66 C15 85.14 15 104.28 15 124 C10.05 124 5.1 124 0 124 C0 83.08 0 42.16 0 0 Z " fill="#88A6D2" transform="translate(1266,2588)"/>
<path d="M0 0 C23.1 0 46.2 0 70 0 C70 4.29 70 8.58 70 13 C51.85 13 33.7 13 15 13 C15 26.2 15 39.4 15 53 C31.83 53 48.66 53 66 53 C66 57.29 66 61.58 66 66 C49.17 66 32.34 66 15 66 C15 80.85 15 95.7 15 111 C33.15 111 51.3 111 70 111 C70 115.29 70 119.58 70 124 C46.9 124 23.8 124 0 124 C0 83.08 0 42.16 0 0 Z " fill="#87A5D0" transform="translate(2776,2588)"/>
<path d="M0 0 C23.1 0 46.2 0 70 0 C70 4.29 70 8.58 70 13 C51.85 13 33.7 13 15 13 C15 26.2 15 39.4 15 53 C31.83 53 48.66 53 66 53 C66 57.29 66 61.58 66 66 C49.17 66 32.34 66 15 66 C15 80.85 15 95.7 15 111 C33.15 111 51.3 111 70 111 C70 115.29 70 119.58 70 124 C46.9 124 23.8 124 0 124 C0 83.08 0 42.16 0 0 Z " fill="#87A5D0" transform="translate(2136,2588)"/>
<path d="M0 0 C23.1 0 46.2 0 70 0 C70 4.29 70 8.58 70 13 C51.85 13 33.7 13 15 13 C15 26.2 15 39.4 15 53 C31.83 53 48.66 53 66 53 C66 57.29 66 61.58 66 66 C49.17 66 32.34 66 15 66 C15 80.85 15 95.7 15 111 C33.15 111 51.3 111 70 111 C70 115.29 70 119.58 70 124 C46.9 124 23.8 124 0 124 C0 83.08 0 42.16 0 0 Z " fill="#87A5D0" transform="translate(1647,2588)"/>
<path d="M0 0 C22.77 0 45.54 0 69 0 C69 4.29 69 8.58 69 13 C51.18 13 33.36 13 15 13 C15 26.2 15 39.4 15 53 C31.83 53 48.66 53 66 53 C66 57.29 66 61.58 66 66 C49.17 66 32.34 66 15 66 C15 80.85 15 95.7 15 111 C32.82 111 50.64 111 69 111 C69 115.29 69 119.58 69 124 C46.23 124 23.46 124 0 124 C0 83.08 0 42.16 0 0 Z " fill="#87A5D1" transform="translate(2423,2588)"/>
<path d="M0 0 C22.77 0 45.54 0 69 0 C69 4.29 69 8.58 69 13 C50.85 13 32.7 13 14 13 C14 26.2 14 39.4 14 53 C31.16 53 48.32 53 66 53 C66 57.29 66 61.58 66 66 C48.84 66 31.68 66 14 66 C14 80.85 14 95.7 14 111 C32.15 111 50.3 111 69 111 C69 115.29 69 119.58 69 124 C46.23 124 23.46 124 0 124 C0 83.08 0 42.16 0 0 Z " fill="#88A7D3" transform="translate(1394,2588)"/>
<path d="M0 0 C1.09376953 0.00580078 2.18753906 0.01160156 3.31445312 0.01757812 C12.0394518 0.14733718 21.16945961 0.64993915 29.125 4.5625 C29.86105469 4.91570313 30.59710937 5.26890625 31.35546875 5.6328125 C31.87753906 5.89835937 32.39960938 6.16390625 32.9375 6.4375 C32.62700274 7.87543392 32.3140224 9.3128318 32 10.75 C31.73896484 11.95076172 31.73896484 11.95076172 31.47265625 13.17578125 C30.9375 15.4375 30.9375 15.4375 29.9375 18.4375 C26.710359 18.07077943 23.68282692 17.66910572 20.57421875 16.703125 C13.60017252 14.56347551 6.93396662 14.08233938 -0.3125 14 C-1.24715088 13.97800537 -2.18180176 13.95601074 -3.14477539 13.93334961 C-10.18245485 13.95399898 -15.78274547 15.24657215 -20.9375 20.26171875 C-24.50540818 26.17106667 -25.00945803 30.85355272 -23.62109375 37.57421875 C-21.93813759 43.13114945 -18.71781014 46.14181835 -14.0625 49.4375 C-11.16628556 50.98338612 -8.183826 52.18971277 -5.125 53.375 C-3.44115488 54.05927761 -1.75756532 54.74418438 -0.07421875 55.4296875 C1.59627056 56.09916698 3.26684108 56.76844387 4.9375 57.4375 C29.27311694 67.2670384 29.27311694 67.2670384 34.9375 79.4375 C38.08636603 87.48212946 38.3211108 96.64431298 35.375 104.8125 C31.41798756 113.29778372 24.607475 120.36038045 15.78125 123.59375 C12.51447375 124.62381458 9.2539014 125.5811128 5.9375 126.4375 C5.1846875 126.6334375 4.431875 126.829375 3.65625 127.03125 C-11.16737617 129.2462746 -27.6139335 128.16178325 -41.0625 121.4375 C-41.0625 116.8175 -41.0625 112.1975 -41.0625 107.4375 C-39.37833984 107.96150391 -39.37833984 107.96150391 -37.66015625 108.49609375 C-34.57583954 109.44110963 -31.48642946 110.36451763 -28.38671875 111.2578125 C-27.67088623 111.46422363 -26.95505371 111.67063477 -26.2175293 111.88330078 C-22.4876644 112.84249341 -18.90671423 113.34187278 -15.0625 113.4375 C-13.92425781 113.48777344 -12.78601562 113.53804687 -11.61328125 113.58984375 C-0.96455907 113.85902277 9.48611653 113.63468607 17.6328125 106.03515625 C22.14752309 100.50666334 21.5719448 94.2661296 20.9375 87.4375 C19.69672081 82.45665783 16.81669146 80.14865541 12.5234375 77.55859375 C6.88242821 74.25891427 1.0085329 71.82585051 -5.0625 69.4375 C-17.59944033 64.50545495 -31.27461559 58.85812491 -37.5625 46.0625 C-39.25354354 41.20074983 -39.47502982 36.41388572 -39.5625 31.3125 C-39.58119141 30.56049316 -39.59988281 29.80848633 -39.61914062 29.03369141 C-39.53962074 22.05276323 -37.23854422 16.89252425 -32.625 11.6875 C-22.57223925 2.86068568 -13.37553263 -0.40340163 0 0 Z " fill="#87A6D2" transform="translate(2361.0625,2586.5625)"/>
<path d="M0 0 C1.09376953 0.00580078 2.18753906 0.01160156 3.31445312 0.01757812 C12.0394518 0.14733718 21.16945961 0.64993915 29.125 4.5625 C29.86105469 4.91570313 30.59710937 5.26890625 31.35546875 5.6328125 C31.87753906 5.89835937 32.39960938 6.16390625 32.9375 6.4375 C32.62700274 7.87543392 32.3140224 9.3128318 32 10.75 C31.73896484 11.95076172 31.73896484 11.95076172 31.47265625 13.17578125 C30.9375 15.4375 30.9375 15.4375 29.9375 18.4375 C26.710359 18.07077943 23.68282692 17.66910572 20.57421875 16.703125 C13.60017252 14.56347551 6.93396662 14.08233938 -0.3125 14 C-1.24715088 13.97800537 -2.18180176 13.95601074 -3.14477539 13.93334961 C-10.18245485 13.95399898 -15.78274547 15.24657215 -20.9375 20.26171875 C-24.50540818 26.17106667 -25.00945803 30.85355272 -23.62109375 37.57421875 C-21.93813759 43.13114945 -18.71781014 46.14181835 -14.0625 49.4375 C-11.16628556 50.98338612 -8.183826 52.18971277 -5.125 53.375 C-3.44115488 54.05927761 -1.75756532 54.74418438 -0.07421875 55.4296875 C1.59627056 56.09916698 3.26684108 56.76844387 4.9375 57.4375 C29.27311694 67.2670384 29.27311694 67.2670384 34.9375 79.4375 C38.08636603 87.48212946 38.3211108 96.64431298 35.375 104.8125 C31.41798756 113.29778372 24.607475 120.36038045 15.78125 123.59375 C12.51447375 124.62381458 9.2539014 125.5811128 5.9375 126.4375 C5.1846875 126.6334375 4.431875 126.829375 3.65625 127.03125 C-11.16737617 129.2462746 -27.6139335 128.16178325 -41.0625 121.4375 C-41.0625 116.8175 -41.0625 112.1975 -41.0625 107.4375 C-39.37833984 107.96150391 -39.37833984 107.96150391 -37.66015625 108.49609375 C-34.57583954 109.44110963 -31.48642946 110.36451763 -28.38671875 111.2578125 C-27.67088623 111.46422363 -26.95505371 111.67063477 -26.2175293 111.88330078 C-22.4876644 112.84249341 -18.90671423 113.34187278 -15.0625 113.4375 C-13.92425781 113.48777344 -12.78601562 113.53804687 -11.61328125 113.58984375 C-0.96455907 113.85902277 9.48611653 113.63468607 17.6328125 106.03515625 C22.14752309 100.50666334 21.5719448 94.2661296 20.9375 87.4375 C19.69672081 82.45665783 16.81669146 80.14865541 12.5234375 77.55859375 C6.88242821 74.25891427 1.0085329 71.82585051 -5.0625 69.4375 C-17.59944033 64.50545495 -31.27461559 58.85812491 -37.5625 46.0625 C-39.25354354 41.20074983 -39.47502982 36.41388572 -39.5625 31.3125 C-39.58119141 30.56049316 -39.59988281 29.80848633 -39.61914062 29.03369141 C-39.53962074 22.05276323 -37.23854422 16.89252425 -32.625 11.6875 C-22.57223925 2.86068568 -13.37553263 -0.40340163 0 0 Z " fill="#87A6D2" transform="translate(2266.0625,2586.5625)"/>
<path d="M0 0 C1.09376953 0.00580078 2.18753906 0.01160156 3.31445312 0.01757812 C12.0394518 0.14733718 21.16945961 0.64993915 29.125 4.5625 C29.86105469 4.91570313 30.59710937 5.26890625 31.35546875 5.6328125 C31.87753906 5.89835937 32.39960937 6.16390625 32.9375 6.4375 C32.62700274 7.87543392 32.3140224 9.3128318 32 10.75 C31.73896484 11.95076172 31.73896484 11.95076172 31.47265625 13.17578125 C30.9375 15.4375 30.9375 15.4375 29.9375 18.4375 C26.710359 18.07077943 23.68282692 17.66910572 20.57421875 16.703125 C13.60017252 14.56347551 6.93396662 14.08233938 -0.3125 14 C-1.24715088 13.97800537 -2.18180176 13.95601074 -3.14477539 13.93334961 C-10.18245485 13.95399898 -15.78274547 15.24657215 -20.9375 20.26171875 C-24.50540818 26.17106667 -25.00945803 30.85355272 -23.62109375 37.57421875 C-21.93813759 43.13114945 -18.71781014 46.14181835 -14.0625 49.4375 C-11.16628556 50.98338612 -8.183826 52.18971277 -5.125 53.375 C-3.44115488 54.05927761 -1.75756532 54.74418438 -0.07421875 55.4296875 C1.59627056 56.09916698 3.26684108 56.76844387 4.9375 57.4375 C29.27311694 67.2670384 29.27311694 67.2670384 34.9375 79.4375 C38.08636603 87.48212946 38.3211108 96.64431298 35.375 104.8125 C31.41798756 113.29778372 24.607475 120.36038045 15.78125 123.59375 C12.51447375 124.62381458 9.2539014 125.5811128 5.9375 126.4375 C5.1846875 126.6334375 4.431875 126.829375 3.65625 127.03125 C-11.16737617 129.2462746 -27.6139335 128.16178325 -41.0625 121.4375 C-41.0625 116.8175 -41.0625 112.1975 -41.0625 107.4375 C-39.37833984 107.96150391 -39.37833984 107.96150391 -37.66015625 108.49609375 C-34.57583954 109.44110963 -31.48642946 110.36451763 -28.38671875 111.2578125 C-27.67088623 111.46422363 -26.95505371 111.67063477 -26.2175293 111.88330078 C-22.4876644 112.84249341 -18.90671423 113.34187278 -15.0625 113.4375 C-13.92425781 113.48777344 -12.78601562 113.53804687 -11.61328125 113.58984375 C-0.96455907 113.85902277 9.48611653 113.63468607 17.6328125 106.03515625 C22.14752309 100.50666334 21.5719448 94.2661296 20.9375 87.4375 C19.69672081 82.45665783 16.81669146 80.14865541 12.5234375 77.55859375 C6.88242821 74.25891427 1.0085329 71.82585051 -5.0625 69.4375 C-17.59944033 64.50545495 -31.27461559 58.85812491 -37.5625 46.0625 C-39.25354354 41.20074983 -39.47502982 36.41388572 -39.5625 31.3125 C-39.58119141 30.56049316 -39.59988281 29.80848633 -39.61914062 29.03369141 C-39.53962074 22.05276323 -37.23854422 16.89252425 -32.625 11.6875 C-22.57223925 2.86068568 -13.37553263 -0.40340163 0 0 Z " fill="#87A6D2" transform="translate(1777.0625,2586.5625)"/>
<path d="M0 0 C30.69 0 61.38 0 93 0 C93 4.29 93 8.58 93 13 C80.13 13 67.26 13 54 13 C54 49.63 54 86.26 54 124 C49.38 124 44.76 124 40 124 C40 87.37 40 50.74 40 13 C26.8 13 13.6 13 0 13 C0 8.71 0 4.42 0 0 Z " fill="#89A7D4" transform="translate(1823,2588)"/>
<path d="M0 0 C30.69 0 61.38 0 93 0 C93 4.29 93 8.58 93 13 C80.13 13 67.26 13 54 13 C54 49.63 54 86.26 54 124 C49.38 124 44.76 124 40 124 C40 87.37 40 50.74 40 13 C26.8 13 13.6 13 0 13 C0 8.71 0 4.42 0 0 Z " fill="#89A7D4" transform="translate(1154,2588)"/>
<path d="M0 0 C5.56875 -0.061875 11.1375 -0.12375 16.875 -0.1875 C18.61120605 -0.21481201 20.34741211 -0.24212402 22.13623047 -0.27026367 C32.56507126 -0.36579043 42.66317272 -0.14585196 51 7 C54.60178977 12.26720448 55.69225918 16.09915403 55.5625 22.4375 C55.5471521 23.56128052 55.5471521 23.56128052 55.53149414 24.70776367 C55.33992841 29.6814179 54.72494009 33.54908437 51.55859375 37.55859375 C48.88520654 40.03097441 46.31990945 41.45861347 43 43 C42.28432861 43.3594873 41.56865723 43.71897461 40.83129883 44.08935547 C36.91340708 45.34948621 33.28846931 45.24794868 29.19921875 45.1953125 C28.45724243 45.19329834 27.71526611 45.19128418 26.95080566 45.18920898 C24.19630697 45.17879606 21.44189685 45.15087363 18.6875 45.125 C12.520625 45.08375 6.35375 45.0425 0 45 C0 30.15 0 15.3 0 0 Z " fill="#2C2C2C" transform="translate(1550,2654)"/>
<path d="M0 0 C6.31125 -0.0928125 6.31125 -0.0928125 12.75 -0.1875 C14.7005127 -0.22846802 14.7005127 -0.22846802 16.69042969 -0.27026367 C27.53130279 -0.34643481 37.26084253 0.49419627 45.4765625 8.0859375 C50.62163855 14.55026381 49.62498488 23.20331368 49 31 C47.70905743 35.97306284 45.03633973 39.89029077 40.85839844 42.98046875 C32.34348378 47.65181447 22.73557361 47.37650787 13.3125 47.1875 C8.919375 47.125625 4.52625 47.06375 0 47 C0 31.49 0 15.98 0 0 Z " fill="#2C2C2D" transform="translate(2887,2601)"/>
<path d="M0 0 C7.3940625 -0.061875 7.3940625 -0.061875 14.9375 -0.125 C16.47398193 -0.14320801 18.01046387 -0.16141602 19.59350586 -0.18017578 C40.6623719 -0.26530251 40.6623719 -0.26530251 47.44140625 6.421875 C51.93134092 11.58977701 52.29791362 15.61814732 52.2109375 22.2109375 C51.8047555 27.58156621 50.16363907 30.75121661 46.4375 34.75 C37.54101471 41.31342057 26.36012396 40.36299408 15.875 40.1875 C10.63625 40.125625 5.3975 40.06375 0 40 C0 26.8 0 13.6 0 0 Z " fill="#2C2C2C" transform="translate(1550,2601)"/>
</svg>
